<svg xmlns="http://www.w3.org/2000/svg" width="900" height="700" viewBox="0 0 900 700">
  <defs>
    <linearGradient id="g" x1="0" y1="0" x2="1" y2="1">
      <stop offset="0" stop-color="#E7B2B9"/>
      <stop offset="1" stop-color="#FDE7EA"/>
    </linearGradient>
    <filter id="s" x="-20%" y="-20%" width="140%" height="140%">
      <feDropShadow dx="0" dy="6" stdDeviation="10" flood-color="#0E5A49" flood-opacity="0.15"/>
    </filter>
  </defs>
  <rect width="100%" height="100%" fill="#FFF5F7"/>
  <!-- Badge -->
  <circle cx="450" cy="330" r="240" fill="url(#g)" filter="url(#s)"/>
  <!-- Dumbbell -->
  <g fill="none" stroke="#0E5A49" stroke-width="18" stroke-linecap="round" stroke-linejoin="round" transform="translate(0,10)">
    <path d="M270 330 h90"/>
    <rect x="210" y="280" width="40" height="100" rx="6"/>
    <rect x="250" y="260" width="40" height="140" rx="6"/>
    <path d="M540 330 h90"/>
    <rect x="610" y="280" width="40" height="100" rx="6"/>
    <rect x="650" y="260" width="40" height="140" rx="6"/>
    <rect x="360" y="300" width="180" height="60" rx="14"/>
  </g>
  <!-- Leaf -->
  <g fill="#0E5A49" opacity="0.9" transform="translate(410,210) rotate(-18)">
    <path d="M0 80 C 0 20, 70 0, 140 40 C 70 60, 30 80, 0 80 Z"/>
  </g>
  <!-- Text -->
  <text x="450" y="580" font-family="Inter,system-ui,-apple-system,Segoe UI,Roboto" font-size="44" text-anchor="middle" fill="#0E5A49">
    Nutrición Deportiva
  </text>
</svg>
